# xmcd
#
# Track frame offsets: 
#        150
#        14427
#        38502
#        58990
#        75247
#        98227
#        130782
#        152727
#        167025
#        175332
#        194512
#        214095
#        242705
#        247172
#        262315
#
# Disc length: 9558 seconds
#
# Revision: 0
# Processed by: cddbd v1.5.1PL0 Copyright (c) Steve Scherf et al.
# Submitted via: ExactAudioCopy v0.95a5
#
DISCID=d125540f
DTITLE=Down - 2 - A Bustle In Your Hedgerow
DYEAR=1900
DGENRE=Hard Rock
TTITLE0=Lysergik Funeral Procession
TTITLE1=There's Something On My Side
TTITLE2=The Man That Follows Hell
TTITLE3=Stained Glass Cross
TTITLE4=Ghosts Along The Mississippi
TTITLE5=Learn From This Mistake
TTITLE6=Beautifully Depressed
TTITLE7=Where I'm Going
TTITLE8=Doob Interlude
TTITLE9=New Orleans Is A Dying Whore
TTITLE10=The Seed
TTITLE11=Lies (I Don't Know What They Say But)
TTITLE12=Flambeaux's Jamming With St. Aug
TTITLE13=Dog Tired
TTITLE14=Landing On The Mountains Of Meggido
EXTD=
EXTT0=
EXTT1=
EXTT2=
EXTT3=
EXTT4=
EXTT5=
EXTT6=
EXTT7=
EXTT8=
EXTT9=
EXTT10=
EXTT11=
EXTT12=
EXTT13=
EXTT14=
PLAYORDER=
